<?xml version="1.0" encoding="utf-8"?>
<!-- Generator: Adobe Illustrator 26.2.1, SVG Export Plug-In . SVG Version: 6.00 Build 0)  -->
<svg version="1.1" id="Layer_1" xmlns="http://www.w3.org/2000/svg" xmlns:xlink="http://www.w3.org/1999/xlink" x="0px" y="0px"
	 viewBox="0 0 2000 2000" style="enable-background:new 0 0 2000 2000;" xml:space="preserve">
<style type="text/css">
	.st0{fill:#FFFFFF;}
</style>
<g>
	<path class="st0" d="M870.9,1054.2c8.5,9.9,17,19.9,26.3,30.8c10.4-8.8,5.6-19.9,2.8-27.8c-9.8-28.4-7.8-57.3-4.3-85.7
		c1.5-12.2,13-23.5,20.9-34.4c1.2-1.6,10.1-0.6,11.9,1.8c8.7,11.8,18.6,23.7,23.4,37.2c9.7,26.8,15.7,54.9,24.5,82
		c4.1,12.4,11.3,23.8,17.1,35.6c8.1,16.4,15.9,32.8,24.3,49c4.9,9.4,11.5,18,15.9,27.6c14.3,30.8,28.2,61.8,41.6,92.9
		c2.1,4.8,1.2,11,1.5,16.5c1.4,28.1,4.8,56.4,3.6,84.4c-1.2,27-6.3,54-11.3,80.7c-1.6,8.2-7,17.1-13.3,22.9
		c-25.2,23.3-34.8,55.2-48.2,84.9c-9.3,20.4-17.7,41.7-22.7,63.5c-5.4,23.5-4.6,47.9,3.1,71.4c3.6,10.9,10.7,15.4,22.6,13.2
		c22.6-4.2,31-12.1,36.3-34.2c3.9-16.1,9.1-31.8,13.3-47.8c1.1-4.4,0.9-9.2,0.6-13.8c-1.2-19-4-38.1-3.6-57.1
		c0.2-10.4,4.2-21.6,9.3-30.8c11-19.5,24.5-37.6,35.8-57c10.3-17.6,20.2-35.6,28.1-54.3c12-28.8,19.2-58.1,12.5-90.4
		c-8.1-39.2-21.2-76.3-38.6-111.9c-16.7-34-34.5-67.3-52.4-100.7c-12.9-24-26.2-47.7-31.3-75.1c-2.6-14-9.6-27.4-10.9-41.5
		c-1.3-15.3,1.6-31,2.9-46.5c0.2-2.5,1.5-4.9,1.6-7.3c0.8-18,13.7-31.9,31-37.1c14.1-4.3,26.9-13.5,41.1-17.2
		c12.9-3.4,23.4-7,29.5-20c0.8-1.7,10.7-1.3,14.6,1.1c20.1,12.6,34.3,52.7,29.3,76.5c-3.6,17.1-5.5,34.5-7.5,51.8
		c-1.4,12.1-3,24.5-2.2,36.5c2.2,34.4,15,65.9,28.1,97.3c11.8,28.4,23.4,56.8,34.4,85.5c9,23.4,17.3,47.1,25.1,70.9
		c8.3,25.4,7.1,50.2-1.1,76.4c-15.5,49.9-23,101.7-17.5,154c3.3,32,0,63.2-14.3,90.3c-17.5,33.3-16,70.2-27.1,104.3
		c-8.1,25-14.2,50.8-24.7,74.7c-5.3,12-19.4,19.8-27.9,30.8c-12.2,15.8-23.1,32.6-33.9,49.4c-6.1,9.5-12.4,12.8-23,6.4
		c-16.9-10-20.6-7.9-28.5,9.4c-4.7,10.2-11.1,20.1-18.6,28.5c-8.9,10-16.9,9.8-25.8-0.3c-7.5-8.5-14.7-18.2-18.9-28.6
		c-7.9-19.4-19.8-33.8-37.4-45.6c-22.8-15.2-34.9-39.6-45-64.2c-7.2-17.6-11.2-36.4-17.7-54.3c-4.3-12-9-24.2-15.9-34.7
		c-14.4-21.8-14.9-43-4.2-66.4c7.3-15.9,14.7-31.7,17.1-50.2c1.3-10.2,9.4-20.5,7.6-32.2c-1.4-9.9-3.9-19.6-6.2-29.4
		c-0.8-3.3-2.7-6.3-3.9-9.4c-7.2-18.6-5.5-26.2,8.5-39.5c9.2-8.8,20.3-16.6,26.6-27.2c6.9-11.6,10.9-25.5,13.1-39
		c3.4-20.4,3.5-41.4,6.1-62c4.6-36.9-6.5-70.6-18.5-104.6c-7.9-22.3-13.4-45.5-19.9-68.4c-5.3-18.7-10.9-37.4-15.2-56.4
		c-2.6-11.3-2.9-23-4.2-34.6C868.2,1054.7,869.5,1054.4,870.9,1054.2z"/>
	<path class="st0" d="M430.8,1525.7c4.2-20.6,3.8-42.3,13.1-58.3c12.4-21.1,16.6-44.3,26.1-65.8c5.5-12.5,2.3-23.6-1.6-34.4
		c-10.8-30-2.3-55.5,15.9-79.4c17-22.2,22.7-49.2,29.4-75.3c7.6-29.6,18.7-56.9,36-82.3c10.7-15.6,17.1-34.1,26.7-50.6
		c9.4-16.1,19.8-31.7,31.2-46.5c3-4,11-4.8,16.9-5.8c23.2-3.7,33.8-21.3,43.1-39.5c8.5-16.8,14.9-34.8,22.6-52
		c4.2-9.3,19.5-13.4,27.7-7.2c14.4,11.1,26,24.3,32.9,41.7c27.6,69.8,56.5,139.2,82.9,209.4c10.4,27.6,18.1,56.8,22.8,86
		c3.4,21-0.4,42.6-15,61.1c-8,10.2-10.7,24.6-18.6,35c-26.6,35.4-8.8,70.5-1.5,106c2.4,11.7,5.5,23.7,4.9,35.3
		c-0.4,7.9-5.2,17.1-10.8,22.9c-6.2,6.3-10.4,12.2-9.7,20.9c1.6,20.7,4.8,41.3,4.7,62c-0.1,19.8-4.8,38.7-23.3,51.3
		c-5.2,3.6-8.8,10.1-12.1,15.9c-6.1,10.9-12.5,21.8-16.6,33.5c-1.5,4.3,2,11.8,5.4,16.1c9.8,12.4,20.5,24,31.2,35.7
		c24,26.3,38.7,56.8,36.6,92.8c-0.8,14.3-6.8,28.7-12.4,42.3c-3.9,9.5-13,11.8-22.8,7.4c-12.9-5.8-25.6-7.3-39.7-3.4
		c-16.4,4.6-30.4-2.7-41.4-14.5c-7-7.4-13.5-15.6-18.5-24.5c-17.7-31.2-34.4-63-52-94.3c-5.2-9.2-11.8-17.7-18.4-26
		c-3.7-4.6-8.1-8.7-15.3-4c-1.8,1.2-6.9-1.3-9.6-3.3c-27-20.8-56.6-36.4-89.2-46.2c-36.2-10.9-55.4-36.9-57.7-75.1
		c-1-17.1-0.8-34.2-11.9-50C435.8,1552.2,434.6,1537.8,430.8,1525.7z M598.4,1552.8c9.3-13.1,21.3-24.2,25.8-37.7
		c12.6-37.9,22.2-76.9,32.9-115.5c1.9-7,3.4-14,5.2-21c6.4-24,11.4-48.6,19.9-71.9c8.3-23,20.9-44.4,30.1-67.1
		c4.6-11.4,3.3-23.3-6.3-33.1c-9-9.3-19.1-9.5-30.4-5.3c-17.4,6.5-27.7,20.1-36.4,35.5c-6.8,12.1-15.1,23.7-20.2,36.6
		c-5.7,14.4-13.3,30.6-11.4,44.9c4.4,32.7-9.7,61-16,91c-4.1,19.7-15.7,38-18.6,57.7C568.8,1496.9,565,1528.7,598.4,1552.8z"/>
	<path class="st0" d="M1647,1693.4c2-12.9,3.1-23.9,5.4-34.7c7.4-35.8,6-71-4.5-106.2c-17.5-58.7-45.7-113-69-169.3
		c-12.9-31.3-22.6-64.6-29.3-97.8c-8.4-41.7-11.2-84.4-18.2-126.4c-3.6-21.6-8.3-42.5-2.9-64.5c14.1-57.9,26.5-116.3,41.8-173.9
		c3.6-13.3,15.7-24.6,25-36c2.3-2.9,8.6-3.6,13-3.6c11.3-0.1,23.1,2.6,33.9,0.6c10.2-2,21.3-6.8,29-13.6
		c21.9-19.5,52.1-22.2,76.6-6.1c28.2,18.4,41.8,46.8,53.9,76.1c12.6,30.3,24.4,60.9,36,91.6c10.7,28.3,22,56.5,30.8,85.5
		c12,39.4,32.5,74.2,55.2,107.9c26.5,39.5,51.3,79.8,68.5,124.3c6.6,17.1,13.1,34.3,18.6,51.7c7.4,23.2,2.3,43.7-11.8,63.8
		c-13.6,19.4-24.2,40.8-36,61.5c-1.2,2.1-1.9,4.9-2,7.4c-0.3,34.2-19,60.1-40.6,83c-12.2,12.9-29.1,22.6-45.7,29.9
		c-29.5,12.9-57.1,28.2-81.8,48.7c-4.5,3.8-7.6,9.5-12.4,12.7c-5.4,3.5-12.5,7.8-18,6.8c-11.5-2-16.5,3.9-21.3,11.9
		c-8.7,14.8-18.2,19.4-34.7,14.4c-11.7-3.6-22.7-6.3-34.9-2.4c-8.5,2.8-14.4-2.2-16.7-9.9C1651.7,1715.4,1649.5,1703.7,1647,1693.4z
		 M1675.1,994.3c-11.1-0.8-21.1,4.7-26.7,20.6c-9.7,27.6-9.1,56.4-8.6,84.3c0.9,51.7,1.1,104.2,21,153.5
		c14.3,35.4,29,70.7,45.2,105.4c15.8,33.9,35.4,66.1,50,100.5c12.8,30.2,13.4,62.7,6.8,95.2c-2,9.9-2.1,20.2-2.2,30.4
		c-0.1,7.4,3.5,10.4,11.7,8.3c5.3-1.3,12-1,17,1.1c16.9,6.9,25.9,3.3,28.8-14.9c4.1-25.5,7.8-51.2,9.3-77
		c0.9-16.7-1.1-33.9-4.3-50.4c-8.1-41.6-30.9-77.3-50.5-113.8c-24.2-45.1-35.8-92.7-37.5-142.9c-1.2-33.9-2.6-67.3-17.3-98.6
		c-12.2-26-16.8-53.5-17.6-81.9C1699.8,1000.7,1692.5,993.7,1675.1,994.3z"/>
	<path class="st0" d="M250.2,1164.9c-0.7,2.9-2.2,7.7-2.8,12.7c-2.5,21.3-4,42.7-7.2,63.9c-3.1,20.8,4.1,36,20.1,49.2
		c24.6,20.2,52.4,34.7,80.1,49.7c13.4,7.2,26.1,16.5,37.1,26.9c19.1,18.1,26.9,42.3,24,67.5c-4,35.4-11.9,70.4-17.8,105.6
		c-2.4,14.2-3.4,28.6-5.7,42.8c-3.8,24.2-22.1,36.5-41.1,47.2c-20.4,11.5-30.8,27.9-31.1,51.4c-0.3,18.8-20.5,30.9-37.1,22.8
		c-11.5-5.6-23.2-10.8-34.6-16.4c-9.3-4.6-18.2-9.2-28.8-2.6c-2.7,1.7-7.6,0.9-11.2,0.1c-27.6-6.4-52-19.1-75.8-34.7
		c-47.9-31.6-81-74.1-100.4-127.5c-3.5-9.7-3.6-20.8-4.7-31.4c-2.5-24.2-5.3-48.3-6.9-72.6c-1-15.2-1-30.7,0.9-45.9
		c0.8-6.3,6.3-14.3,11.9-17c7.9-3.9,17.1-3.3,22.3,7.8c3.3,7.1,8.7,13.4,14,19.4c8.9,10,20,10.1,30.2,1.1c18-16,32.2-15.6,46.6,3.1
		c9.6,12.5,19.1,25.5,25.8,39.6c15.9,33.3,21,67.2-0.6,100.7c-5.4,8.3-2.8,33.3,4.5,38.7c10.1,7.6,20.7,4.3,31-1.3
		c13.7-7.4,22.8-14.9,21.8-34.2c-1.3-23.6,16.4-41.2,30.8-58.6c8.3-10,13.1-37.4,5.4-47.2c-3.1-4-8.6-8.3-13.2-8.5
		c-23.1-0.8-37.7-14.4-49.8-31.6c-7.8-11.2-14.2-23.4-21.9-34.7c-5-7.4-10.2-15.2-16.9-20.7c-37.5-30.6-62.2-70.6-80.6-113.9
		c-9.5-22.3-10.3-48.4-15.3-72.7c-3.4-16.6-6.5-33.3-11.4-49.4c-8.4-27.6-9.7-41.5,16.9-66.8c12.6-11.9,18.5-30.9,26.9-47
		c4.3-8.3,5.3-19.1,11.3-25.4c9.2-9.5,20.7-17.4,32.6-23.5c8.6-4.4,19.3-6.4,29.1-6.6c15-0.3,30.3,0.7,45.1,3.3
		c14.5,2.5,25.6-5.1,36.8-10.7c11.4-5.7,20.1-5.6,29.6,2.1c21.6,17.5,42.6,35.6,65,52c17.1,12.6,35.2,23.9,53.9,34
		c34.7,18.9,49.4,49.9,53.2,86.8c1.6,15.8,5.8,28.9,17.3,39.9c10.8,10.3,13.5,23.3,11.2,37.7c-3.4,20.6-6.3,41.4-10.4,61.8
		c-2.7,13.2-7.1,26.2-11,39.1c-5.6,18.5-11.5,37-17.2,55.5c-2.6,8.5-16.8,14-28.5,8.4c-9.2-4.4-16.4-12.9-24.9-19.2
		c-4.9-3.6-10.4-6.4-15.6-9.7c-8.8-5.5-19.9-9.3-25.7-17.1c-11.7-15.6-19.1-32.9-17.4-54.4c1.2-16.1-4.2-32.8-7.5-49.1
		c-0.6-3-4.4-6.8-7.5-7.6C287.4,1173.3,270,1169.5,250.2,1164.9z"/>
	<path class="st0" d="M1472.6,1637c-10.5,9.3-20.2,16.8-28.6,25.4c-9.7,9.9-20,7.5-30.7,3.5c-19.8-7.4-20.7-7.1-23.8,14.3
		c-1,7.1,0.3,14.6-1.4,21.5c-2.4,10.1-5.6,20.2-10,29.6c-10.4,22.6-16.7,46.1-21.4,70.4c-2.7,14.1-7.2,28.9-22.7,36.7
		c-8.4,4.2-14.5,3.5-20.9-2.2c-7.3-6.5-14.5-13.1-21.6-19.8c-10.4-9.8-15.8-10.2-22.9-0.2c-7.7,10.9-15.9,21.7-30.9,16.6
		c-12.2-4.2-23.7-29.3-19.9-42.8c6.3-22.6,14.6-44.5,31.4-62c3-3.2,5-7.8,6.3-12.1c5.3-17.9,8.8-36.4,15.4-53.8
		c12.9-34.2,20.6-68.4,16.4-105.7c-2.3-20.6-1-41.8,9.7-62.7c14-27.3,17.4-58,15.8-89.5c-1.3-26-7.8-50-15.1-74.7
		c-6.1-20.5-5-43-8.1-64.5c-6.5-45.5-14.7-90.8-20.2-136.4c-4.7-38.8-8.3-77.9-9.1-116.9c-0.3-14.4,8.6-29.1,13.9-43.4
		c6.8-18.4,13.9-36.6,21.2-54.8c9.1-22.8,26.8-27.3,45.2-11.1c8.3,7.3,12-1,17.4-3.9c9.1-4.9,17.5-12.2,27.2-14.7
		c25.2-6.5,45.8,10.1,45.7,36.4c-0.1,20.8-1.5,41.7-3.3,62.4c-2,22.2,1.8,43.2,10.2,63.7c7.6,18.5,16.1,37.1,12.6,58
		c-1,6.2-3.1,12.3-4.9,18.3c-7.7,26.6,4.2,50.7,10.9,74.9c11.1,40.3,24.5,79.9,38,119.5c7.6,22.2,18,43.4,25.7,65.5
		c11.7,33.6,23.4,67.4,33,101.6c14.1,50.4,27.1,101.2,39.1,152.2c5.2,21.9,7.9,44.5,10,67c1.9,20.4-5.1,28.5-25.4,29.7
		c-12,0.8-15.4,9-19.8,17.1c-4.4,8.3-7.9,17.6-19.8,17.2c-13.8-0.5-29.1,0.2-34.9-15.7c-7.8-21.5-14.3-43.5-20.1-65.7
		c-3.1-11.9-3.4-24.5-5.4-36.7C1476.3,1644.9,1474.1,1641,1472.6,1637z M1383.5,1346.4c-1.2,0.4-2.4,0.7-3.5,1.1
		c0.3,6.6,0.1,13.4,1.1,19.9c4.5,27.8,9.8,55.4,14,83.2c2.9,18.9,4.3,38,6.8,56.9c1.2,9.4,7,11.7,14.3,5.9c4-3.2,7.4-7.9,9.4-12.6
		c6.1-14.3,2.2-28.6-2.3-42.5c-9.7-29.6-19.7-59-29.9-88.5C1390.6,1361.9,1386.8,1354.2,1383.5,1346.4z"/>
	<path class="st0" d="M852,597.2c4.5-2.6,6.9-4,9.8-5.7c0.3,2,1,3.4,0.6,4.4c-7.8,18.3-16,36.5-23.5,55c-1.7,4.1-1.4,9.3-1.3,13.9
		c0.6,17.7,2.8,35.5,1.9,53.1c-1.1,22.3-4.2,44.6-7.5,66.7c-0.6,4-6.6,7-9.3,11c-9.2,14-15.4,29.2-16.9,46.1
		c-1.2,12.8-7.3,18.5-20.3,12.7c-11.9,11.3-0.2,33.3-23.3,41.3c-6.3-7.2-14.2-16.1-21.8-25.2c-7.1-8.4-12.9-18.1-21-25.4
		c-28.3-25.7-45.3-57.8-56.8-93.8c-3.7-11.5-10.8-22.2-18-32.2c-12-16.7-19.2-35.9-17-55.1c3.1-28.2-1.9-55.6-2.9-83.3
		c-0.6-15.2-4-30.3-5.9-45.5c-0.5-4.1-1.4-9.3,0.5-12.5c11.1-18.9,6.4-39.5,6.8-59.3c0.7-34-0.8-68.1-0.6-102.1
		c0.1-13.2,14.5-22.7,27.7-18.6c10.4,3.2,18.4,3.5,22.3-8.7c0.5-1.5,2.2-2.6,3.1-4.1c6.7-10.3,14.2-20.5,28.2-17.6
		c12.5,2.6,23.8,21.9,22.1,37.3c-1.1,9.4,1.8,19.5-7.2,28.3c-4.4,4.3-2.9,15.1-3.2,23c-0.9,26.4-5.8,52.7,2.6,79.3
		c3.3,10.5,1.8,23.6-0.9,34.7c-7.5,30.9-8.2,61.9-6.8,93.3c1.1,24,1.5,48.1,4,72c1.6,15,5.8,29.8,10.1,44.4c1.2,4,7.3,9.8,10.1,9.2
		c5.5-1,13.2-4.9,14.7-9.4c4.3-13.1,8.2-27.1,8.1-40.8c-0.1-16.8-3-33.9-7.3-50.2c-6.1-23.3-9.8-46.5-7.6-70.4
		c0.2-2.4,2-4.7,2.5-7.2c2.7-13.2,5.7-26.4,7.8-39.6c2-12.5,3.5-25.1,4.6-37.7c2.4-27,5.1-54,6.5-81.1c1.3-25.9-0.5-52.1,2.2-77.8
		c1.1-10.2,10.7-19.5,16.7-29c0.8-1.3,4.1-2,5.7-1.5c12.8,4.1,18.3-4.5,24.8-12.9c13.7-17.8,18-24.3,37.6-5.7
		c23.3,22.2,26.7,50.4,21.6,80.3c-5.4,31.8-9.4,63.6-3.4,95.7c2.4,12.7-6.5,20.4-11.2,30.1c-4.6,9.6-7.6,20.1-10.1,30.5
		c-1.5,6.1,0.8,13.3-1.2,19.1C841.7,549.7,852.3,572.1,852,597.2z"/>
	<path class="st0" d="M579.4,947.2c-0.6,6.8-1,10.5-1.2,14.2c-0.7,14.1-5,16.7-17.6,10.1c-4-2.1-7.7-5.4-10.8-8.8
		c-11.4-12.3-20.5-26.4-37.4-33.6c-8-3.4-14-13.6-19-21.9c-22.7-38.3-39.9-78.8-50.2-122.4c-7.9-33.4-18.9-66.1-25.6-99.7
		c-3.5-17.8-8.6-35.4-6.5-55.1c2.8-26.6-2.5-53.9-2.4-80.9c0.1-14.5,4.9-28.9,6.4-43.4c2.9-27.4,5.1-54.8,7.3-82.2
		c0.9-11.9,0-24,2.1-35.6c1.3-7.5,7.9-14,9.6-21.4c2.6-11.5,11.9-6.9,18.1-9.8c5.4-2.5,9.6-7.6,14.5-11.3
		c8.3-6.3,15.8-15.1,25.2-17.9c18.2-5.3,33.6,2.8,44.4,23.6c9.2,17.6,15.3,36.9,22.4,55.6c6.8,17.9,12.9,36.1,19.8,54
		c12,31,22.6,62.6,21.4,96.2c-0.6,16.6-8.8,33.3-7.7,49.5c1.8,26.7,0.8,54.3,12.6,79.8c4.4,9.5,5.3,20.5,7.5,31
		c4.7,22.8,12,45.5,13.1,68.5c1.3,27-1.8,54.5-4.8,81.5c-1.8,15.5-8,30.5-10.9,45.9c-1.8,9.5-0.6,19.5-2,29.1
		c-0.8,5.4-2.9,12.2-6.9,15.1c-2.6,1.9-9.6-1.8-14.4-3.5C584.6,953,583.3,950.9,579.4,947.2z M539.6,745.4c1.6-0.8,3.2-1.6,4.7-2.3
		c0.3-4.3,1.6-8.7,0.8-12.7c-1.2-7-3.4-13.9-5.6-20.8c-14-42.9-18-87.3-15.9-131.9c1.2-24.1,1.1-46.5-9.4-69.2
		c-6.3-13.7-6.6-30.3-9.7-45.5c-1-5.1-2.6-10-3.9-15.1c-1.4,0.2-2.9,0.4-4.3,0.7c-0.8,3.1-2.1,6.2-2.2,9.3
		c-1.2,31.4-2.2,62.9-3.3,94.4c-0.2,5.5-1.2,11.1-0.6,16.4c3,27.1,6.5,54.2,9.7,81.2c1.1,9.4,2,18.9,3.3,28.4
		c2,14.5,1.1,30.5,7.4,42.9C515.9,731.5,529.7,737.5,539.6,745.4z"/>
	<path class="st0" d="M977.5,477c2.7,26,5.4,50.1,7.4,74.2c0.5,6.6,1.4,15.6-2.3,19.6c-13.2,14.6-12.8,32.1-13.5,49.3
		c-1.1,28.5-1.6,57-1.3,85.5c0.1,9.5,1.5,22.5,13.2,23.3c10.5,0.8,14.3-10.7,16-20.2c4.6-25.6,8.6-51.3,12.9-76.9
		c2.4-14.2,11.9-18.6,23.5-9.6c8.5,6.6,13.4,6.3,21.3-1.4c11.1-10.7,25.7-6.6,32.6,9.4c4.1,9.5,6.4,20.9,5.5,31.1
		c-2.3,26-1.9,52.8-14.5,77.1c-1.5,2.9-2.8,6.8-2.2,9.8c4,18.4-4.1,33.4-16.3,44.7c-12.1,11.2-13.2,26.1-19.6,39.2
		c-7.3,14.8-22.6,24.3-39.2,20.1c-15-3.8-27.1-1.6-39.5,7.4c-10.9,7.9-19.4,5.6-26-6.4c-4.9-8.9-7.9-18.8-11.6-28.4
		c-5.5-14.2-9.3-29.2-16.5-42.5c-15.3-28.2-26.7-57.9-29.7-89.3c-1.8-18.3,1.3-37.1-4.5-55.3c-0.5-1.5-0.3-3.7,0.5-5
		c11.5-18.9,5.4-38.5,3.7-58.4c-1.6-19.4-4-41.2,2.9-58.2c9-22.3,8.5-44.5,11.9-66.9c2.5-16.2,6.6-31.8,5.3-48.8
		c-2.6-35.5,10.7-65.8,34.7-91.9c5.4-5.9,10-12.8,13.6-20c9.2-18.6,26.7-28.4,46.9-24.3c16.2,3.3,33,5.5,48.2,11.7
		c39.3,16,54.2,49,58.6,89c3.3,29.8-2.9,58.5-7,87.5c-2.3,16.6-8,20.8-25.1,22.5c-7.7,0.8-11.4,4.4-12.1,12.1
		c-0.8,9-2.2,18.4-13.5,20.4c-12.6,2.2-20.3-5.5-22.8-16c-3.9-16-5-32.7-7.8-49c-1.6-9.6-3.4-19.3-6.6-28.5
		c-1.4-4.1-6.3-6.9-9.7-10.3c-2.7,3.5-7.1,6.7-7.8,10.6C983.6,435.6,980.6,457.1,977.5,477z"/>
	<path class="st0" d="M1838.6,578.2c0.7-4.2,2.3-8.5,2.1-12.7c-0.9-17.9-1.8-35.8-3.6-53.7c-1-10,1.6-17,9.8-23.3
		c7.6-5.8,14-13.3,20.8-20.1c0.9-0.9,1.5-2.3,2.6-2.8c5.3-2.3,12.9-7.8,15.7-6c12.3,8,30-0.5,39,12.4c3.3,4.8,3.4,16.2-0.1,20.6
		c-23.4,29.6-28.8,63.1-24.3,99.2c2.4,19.4-4.4,35.8-15.3,51.3c-2.7,3.9-4.6,8.8-5.3,13.5c-5.2,32.9-9.1,66-15.1,98.7
		c-4,21.7-11,42.7-16.4,64.1c-4.2,16.6-17.2,26.2-29.1,36.3c-2.2,1.8-9.9-0.3-13.2-2.9c-21.5-17.5-34-40.5-37-67.9
		c-4.1-37.7-6.6-75.6-10.6-113.4c-1.3-12.7-4.9-25.1-7.8-37.6c-0.6-2.4-3.3-4.3-5-6.4c-1.9,2-4.7,3.6-5.4,6
		c-1.8,6.1-3.5,12.4-3.9,18.8c-1.5,23.4-0.7,47.1-4.1,70.2c-2.2,15-10,29.1-15.5,43.5c-2.9,7.6-7.7,14.9-8.8,22.7
		c-2,15-4,18.3-19,17.1c-36.3-2.8-50.3-15.2-50.8-40c-0.2-10.2,0.9-20.6,3-30.6c7.8-37.1,15-74.5,25-111.1
		c5.2-19.1,4.9-37.1,3.9-56.4c-0.8-15.4,3.4-32.7,10.5-46.6c12.8-25.3,29.1-48.9,44.5-72.9c3.4-5.3,8.5-9.6,13.3-13.7
		c8.4-7.1,17.2-6.9,27.3-2.1c8.1,3.8,17.4,5.8,26.3,6.5c15.2,1.1,29.3,19.5,26.1,34.7c-4.3,20.1-6.7,40.1,2.1,60.2
		c4.7,10.9,6.5,23,9.9,34.4c1,3.5,2.8,6.7,4.2,10.1C1835.7,578.4,1837.2,578.3,1838.6,578.2z"/>
	<path class="st0" d="M1561.6,388c8.1-0.7,16.3-0.6,24.2-2.2c21.8-4.4,39.2,3.4,54.7,17.8c12.6,11.5,26.1,22.1,37.9,34.5
		c14.3,15,15.2,28.4,5.4,46.9c-2.4,4.5-4.9,9.3-8.4,12.8c-30.1,30.7-41.1,69.7-47.6,110.5c-4.8,29.8-9,59.8-13.7,89.6
		c-1.8,11.2-4.2,22.4-6.5,33.5c-7.5,36-21.1,69.1-47.3,95.9c-6.5,6.6-13.9,11.4-23.8,7.3c-17-7.1-32-3.6-46.6,7.1
		c-12.9,9.4-24.4,7-32.2-6.7c-4.3-7.6-6.4-16.5-9.2-25c-5.7-17.7-9.3-36.4-17.4-53c-10-20.6-13.5-40.7-9.9-63.2
		c1.7-10.6,0.3-22.3-2.3-32.9c-4.8-19.5-3.3-36.7,5.3-55.7c11.5-25.4,18.2-52.9,26.7-79.6c2.8-8.9,5.3-18,7.1-27.2
		c1.7-8.7,3.4-17.7,3-26.4c-0.6-13.9,2.7-24.6,13.4-35c14.3-13.9,25.2-31.6,44.5-39.5c13.4-5.5,27.6-9.1,41.5-13.6
		C1560.8,385.3,1561.2,386.7,1561.6,388z M1498.1,719.3c-0.9,0.1-1.9,0.2-2.8,0.4c2.6,12.8,4.7,25.8,8.2,38.5
		c1.1,4.2,5.9,7.3,9,10.9c3.5-3.9,8.8-7.2,10.3-11.7c4.7-15,8.9-30.3,11.8-45.8c4.5-24.2,7.4-48.6,12-72.8c1.6-8.4,7.8-16,9.3-24.4
		c5-27.7,8.4-55.6,13.3-83.3c1.6-9.1,5.9-17.6,9.1-26.4c4.8-13.1,11.1-25.8,13.8-39.3c1-5.1-4.7-13.7-9.8-17.2
		c-2.9-2-12,1.9-16.1,5.5c-17.1,15.4-24.8,35.2-24.5,58.2c0.3,19-2,37.6-14.2,53.1c-12.7,16-22.3,34.3-24.6,53.7
		C1499.1,651.9,1499.5,685.7,1498.1,719.3z"/>
	<path class="st0" d="M393.1,939c-27.7-5-37.7-26.9-51.1-43.7c-11-13.8-22.6-13.4-37-10.5c-5.2,1.1-13,1-16.3-2
		c-12.4-11.5-26.1-23.1-20.6-43.5c0.4-1.6,0.3-3.4,0-5.1c-4.1-32.5-8.7-64.9-12.1-97.5c-1.1-10.8,0.9-21.9,1.6-32.8
		c2-29.9-0.4-59.4-7-88.6c-2.4-10.9,0.2-20.2,4.1-30.4c3.7-9.6,4.4-20.6,5.1-31.1c2.3-36.1,3.7-72.3,6.3-108.5
		c0.6-8.7,4.3-17.2,6.7-25.8c2.9-10.5,12.3-10.5,20.4-12.5c1.2-0.3,2.7-0.7,3.4-1.6c14.8-19.1,37.9-20.4,58.3-27.3
		c15.4-5.2,33.1,4.7,38.6,23c7.3,24.3,9.4,48.3,3.7,74.2c-5.3,24.1-2.3,49.9-4.5,74.8c-1.5,16.9-4.9,33.8-9.1,50.3
		c-1.2,4.8-8.1,8.1-12.4,12c-6.4,5.9-6.3,12.9-0.1,17.8c22.3,17.4,26.3,42.1,29.7,67.9c2.8,20.6,8.1,40.8,12.3,61.2
		c3.4,16.2,8.1,32.4,9.6,48.8c1,11-2.2,22.5-4.3,33.6c-2.1,11.4-5.1,22.7-7.9,33.9c-2.3,8.9-5.2,17.7-7.3,26.6
		c-1.5,6.6-1.5,13.7-3.3,20.2C398.4,928.3,395.3,933.8,393.1,939z M321.3,648.8c-1.7,0.2-3.3,0.3-5,0.5c-0.8,5.9-2.9,12-2.3,17.8
		c2.6,25.2,6.3,50.3,9.2,75.5c1.6,13.6,11.1,19.4,22.6,24.9c1.4-6.6,1.2-12.6,0.7-18.6c-1.4-16.8-4.4-33.6-4.2-50.3
		C342.6,678,330.6,664.3,321.3,648.8z M335.3,497.7c1.1-0.2,2.2-0.4,3.3-0.6c-1.1-4.5-1.7-9.2-3.5-13.5c-1.3-3.1-4.2-5.4-6.3-8.1
		c-2.6,2.8-6.8,5.2-7.4,8.3c-2,10.6-2.8,21.5-4,32.3c-1.7,14.3-4.2,28.6-4.6,43c-0.1,4.7,4.7,10.7,9,13.8c1.6,1.1,10.4-3.5,11.7-7
		c3.4-9.5,6.1-19.7,6.2-29.7C339.7,523.3,336.8,510.5,335.3,497.7z"/>
	<path class="st0" d="M1181,396.9c-9.7,5.2-18.4,10.7-27.8,14.8c-12.6,5.5-23.1,0.8-24.4-12.8c-1.1-11.9,1.6-24.3,3.8-36.2
		c0.6-3.2,5.4-7.4,8.8-8c12.9-2.1,12.7-10.6,11.2-20.1c-1.8-11.2-3.9-22.8,7.3-30.3c4.8-3.2,11.1-4.1,16.8-5.8
		c5.1-1.5,11-1.5,15.4-4c14.9-8.4,25-8.8,37.9,1.2c8.7,6.7,15.9,11.9,26.6,1.9c3-2.8,13.1-0.8,18.3,2c12.3,6.7,22.7,14.6,38.9,9.2
		c7.2-2.4,18.3,2.6,26,7c7.6,4.4,12.5,14,5.5,22c-8.9,10.3-7.1,21.3-6.2,32.7c1.3,16.2-8.4,35.8-22.7,42.2c-4,1.8-10.6,0.3-14.8-1.9
		c-4.6-2.5-7.6-8-11.7-11.6c-10.8-9.4-22.9-5.3-25.6,8.5c-8.3,43.2-16.4,86.4-24.7,129.5c-1.1,5.8-2.8,11.7-5.2,17
		c-13.2,28.6-12.9,58.4-8.3,88.6c0.5,3.4,1.7,6.8,1.4,10.1c-5,52.1-5.9,104.9-23.2,155.2c-5.6,16.2-7.4,17-20.4,6.9
		c-11.4-8.9-14.5-8.2-21.3,4.5c-6.5,12.1-15.3,12.7-23,1c-9.2-14-8.8-29.6-6.7-45.6c1.5-11.2,3.4-23.1,1.3-34
		c-4.5-23.7-4-45.7,4.4-69c7.4-20.5,9.6-42.9,13.5-64.6c3.6-20.1,7-40.4,9.4-60.7c1.2-10.5-1-21.3,0.2-31.8
		c1.4-12.9,4.8-25.6,7.3-38.4c4.8-24.9,9.7-49.8,14.3-74.8C1183.5,400.3,1181.6,398.3,1181,396.9z"/>
	<path class="st0" d="M162.1,483.2c3.2-5.4,5.6-11.6,9.9-16c4.1-4.2,11.3-9.9,15.1-8.6c6.3,2.1,13.9,8.3,15.7,14.4
		c3.8,12.9,3.9,26.9,6.1,40.4c2.4,14.6,4.1,29.5,8.4,43.7c4,13.2,4.5,25.2,0,38.4c-2.1,6.2,0.1,14.2,1.5,21.1
		c3.7,18.8,8.5,37.4,11.9,56.3c1.3,7,1.8,15-0.4,21.5c-7.4,21.6-0.3,42.5,3.2,62.9c3.5,20.6,13.3,40,18.9,60.3
		c2.8,10.2,2.4,21.3,3.7,33.6c-13.3-3.4-23.5-6-34.3-8.7c0,0-1.1,0-1.6,0.6c-14.5,17-36.2,14.9-46-6.6c-6.3-14-7.6-30.2-11.2-45.5
		c-0.9-4.1-1.7-8.3-2.5-12.4c-1.7-0.9-3.5-1.8-5.2-2.7c-1.5,3-2.2,7.7-4.5,8.8c-7.4,3.2-15.5,7.4-23.1,6.9
		c-12.9-0.7-14.9-0.2-14.2,13c0.2,3.8,2.1,8.7,0.4,11.3c-13.9,22.1-11,48.4-19.1,71.9c-3.8,10.9-12.9,14.8-21.8,8.4
		c-8.1-5.9-13.8-2.9-19,2.7c-6.6,7.2-14.1,8.9-21.5,3c-7.4-5.9-9.4-14-3.7-22.7c2.5-3.8,5.6-7.4,7.6-11.5c3-5.9,7.7-12.2,7.4-18.2
		C42,809,53.2,770.8,63,732.5c2.7-10.4,10.8-19.6,17.3-28.7c11.3-15.8,19.4-32.7,15.7-52.3c-2.4-12.5-2.2-24,4.5-34.5
		c20.8-32.6,25.2-70.2,34-106.5c0.7-2.9,1-5.9,1.7-8.8C141.2,480.3,141.3,480.2,162.1,483.2z M150.5,666.8c-1.3-0.1-2.5-0.3-3.8-0.4
		c-1.6,4.1-3.5,8.1-4.6,12.3c-1.8,7.4-3.5,14.9-4.4,22.4c-0.6,5.1,0.3,10.3,0.5,15.5c4.8-3.5,13.4-6.8,13.8-10.7
		C153.1,693,151.2,679.8,150.5,666.8z"/>
	<path class="st0" d="M1280.7,762.1c5.7-43,11.4-86,17-129.1c1.4-10.4,3.6-19.9,8.9-29.7c5.3-9.6,3.8-23,5-34.8
		c2.3-23.2,6-46.4,6.1-69.7c0-21.1,13.7-35.4,21-52.8c9.1-21.9,18.7-43.7,28.1-65.5c2.8-6.6,4.6-14.4,9.4-19.1
		c4-3.9,12.4-6.4,17.7-5.1c9,2.3,16.5,2.2,24.3-2.7c9.2-5.8,18.2-6.1,27.3,1c9.5,7.4,16.4,16.4,12.5,28.4
		c-3.5,10.6-8.8,21-15.1,30.3c-13.2,19.7-18.5,41.9-24,64.4c-6,24.4-13.3,48.5-18.6,73.1c-4,18.6-4.9,37.8-8.7,56.4
		c-4.2,20.8-8.2,41.6-21.4,59.6c-4.3,5.8-3.8,15.4-4.7,23.4c-4,34.2-7.8,68.5-11.5,102.8c-1.6,14.7-18.6,23.4-31.6,15
		c-7.8-5.1-11.9-4-15.9,4.1c-1.7,3.4-6.7,8.6-8.2,8c-4.3-1.8-9.9-5.5-10.8-9.5c-2.6-11.1-3.3-22.6-4.3-34c-0.4-4.6,0.5-9.4,0.8-14.1
		C1282.8,762.4,1281.7,762.3,1280.7,762.1z"/>
</g>
</svg>
