<?xml version="1.0" encoding="utf-8"?>
<!-- Generator: Adobe Illustrator 26.2.1, SVG Export Plug-In . SVG Version: 6.00 Build 0)  -->
<svg version="1.1" id="Layer_1" xmlns="http://www.w3.org/2000/svg" xmlns:xlink="http://www.w3.org/1999/xlink" x="0px" y="0px"
	 viewBox="0 0 2000 2000" style="enable-background:new 0 0 2000 2000;" xml:space="preserve">
<style type="text/css">
	.st0{fill:#D7DF24;}
	.st1{fill:#D7DF25;}
	.st2{fill:#DBE23B;}
	.st3{fill:#F6F7CE;}
</style>
<g>
	<path class="st0" d="M486.8,994.5c-25.4,49.3-65,84.5-90.7,129.6c-7.3,12.9-11.9,26.7-13.9,41.9c-2.5,18.6-9.6,36.8-29.7,44
		c-16.2,5.8-22.6,17.4-25.8,33.1c-3,14.5-7.7,28.7-17,40.8c-5.4,7-11.2,12.6-21,10.1c-10.7-2.7-14.3-11-16.2-20.6
		c-0.4-1.8-0.7-3.9,0-5.5c28.1-70.2-14.4-143.3,9.3-214.2c5.3-15.9,3.4-35-6.6-51.8c-3.2,1.4-7.2,1.9-7.7,3.6
		c-19.2,57.9-51,111.6-58.1,173.6c-0.1,0.9,0.1,2-0.3,2.8c-21,45.7-40.7,92.1-63.9,136.7c-10.3,19.8-36.5,26.9-49.2-2.7
		c-7.8-18.2-15.9-15.1-23,1.2c-5.8,13.6-14.1,25.5-31.3,21c-17.2-4.5-21.5-19.1-22.8-34.7c-1.7-21,8.6-38.5,20.9-53.3
		c17.5-21.1,26.8-44.9,29.8-70.8c4.2-36.1,19.8-67.3,35.8-98.9c33.5-66,54.4-135.7,58.2-209.9c0.7-13.8,4.1-26.9,14.8-34.8
		c29.1-21.5,35.8-53,41.8-85.2c8.6-45.3,19.3-52.3,63.9-39.8c9.2,2.6,16.1,1.1,23.4-4.1c10.8-7.6,22.9-12.7,36.2-13.6
		c22.5-1.5,36.3,10.5,30.5,31.7c-13.1,47.9-10,93.2,10.9,138.1c6.4,13.8,3.2,29.4,3.4,44.2c0.3,19.1,0.1,38.3,0.1,59.3
		c14.7-3.3,15.2-12.8,19.1-19.1c11.4-18.4,23.3-34.9,46.1-42.1c21.5-6.8,34.7-25.3,43.8-44.9c21.2-45.7,47.2-88.2,81.3-125.6
		c10.8-11.9,15.7-27.1,22-41.6c14.2-32.8,34.6-40.9,66.1-25.1c15.1,7.6,22.7-1.7,31.8-8.9c9.7-7.7,19-16.1,32.5-8.8
		c14,7.5,10.3,21.1,9.1,32.4c-3.4,33.2-19.6,61.9-36.4,89.7c-16.1,26.6-23.7,54.5-31.2,84.7c-13.9,56-21.9,115.3-56.9,164.4
		c-8.3,11.6-11,23.6-11.5,38.6c-2.6,72.2-28.9,137.4-66.3,198.3c-9.8,15.9-28.2,19.1-45.2,13.7c-17.8-5.8-29.8-1.1-42.5,11.2
		c-9.9,9.5-23.2,19.6-37.5,11.7c-16.1-8.8-20.7-25.4-18.4-43.4c0.5-3.7,0.4-7.9,2.2-10.8c39.2-64.6,37.5-145.9,85.6-207
		C489.6,1024.2,492.5,1011.8,486.8,994.5z"/>
	<path class="st0" d="M1335.4,930.5c8.8-24.2,16.8-45.2,6.1-68.8c-9.9-21.8-8.3-43.6,5.6-63.5c19.9-28.5,33-59.8,43.2-93
		c13-42.2,37.8-62.3,75.6-35.9c9.4,6.5,15.9,2.7,23.8-5.3c21.9-22.4,47.8-14.2,55.3,16.3c4,16.4-0.9,31.1-8.1,45.5
		c-39.1,77.9-67.1,160.2-73.9,246.6c-7.9,99.7-59.5,183.6-88.4,275.5c-9.3,29.5-35.2,45-67.9,43.8c-10-0.4-17,2.5-25.1,8.6
		c-25.8,19.5-56,8.9-66.5-21.8c-7.2-21.3-5.3-43.6-7.9-65.4c-5.2-42.3-21.5-82.6-24.3-125.5c-0.8-12.8-2.3-25.5-5.3-38.3
		c-12.8,34.4-5.4,71.6-15.6,106.3c-7.8,26.6-9.1,55.1-22.6,80.1c-5.8,10.6-11.9,21.7-22.6,27.9c-16,9.2-23.3,21.6-24.4,40.3
		c-1.1,17.8-11.6,31.1-30,36.3c-16.9,4.7-25.7-6.2-34.7-17.5c-3.4-4.3-7.8-8.1-12.5-10.8c-35.6-20.9-45.5-43.1-32.2-82
		c21.3-62.3,46.1-123.3,64.2-186.7c4.5-15.6,7.9-31.4,2.6-46.5c-10.8-31-3.5-59.5,11.9-85.4c29-48.5,45.6-101.4,61.1-154.9
		c6.2-21.5,14.6-42,29.4-59.5c12.8-15.1,28.1-17.6,40.3-2.6c11.6,14.2,20.4,11.8,32.5,3c19.5-14.1,32.8-8.4,45.7,11.3
		c23.4,35.7,16.8,75.6,17.3,113.6C1288.7,865.3,1304.7,898.7,1335.4,930.5z"/>
	<path class="st0" d="M1918.8,812.1c-18.8,40-21,83.9-29.6,126.3c-16.2,80-30.5,160.4-45.9,240.5c-3.8,19.8-1.6,38.9,4.2,57.7
		c16.7,53.5-17.1,102.2-74.4,104.9c-26.9,1.3-53.4-3.2-68-29.4c-13.5-24.1-6.7-48.3,10.7-67.1c75.3-81.1,83.8-187.9,112.2-286.8
		c10.5-36.5,17.9-73.9,26.2-111.1c8.6-38.1,4.9-44.9-32.8-49.3c-40.6-4.8-81-9.2-120.7,9.7c-27.7,13.2-64.1-3-84.8-32.3
		c-17.9-25.2-14.6-65,7.7-93.5c19.9-25.4,59.5-34.9,91.6-21.1c9.3,4,20.5,8.7,25.4,16.5c25.4,40.4,67,47.2,108.4,53.7
		c68,10.6,136.2,22.5,205.4,9.2c10-1.9,19.8-5.5,29.9-6.6c45-4.8,62.8,17.6,48.3,60.3c-2.1,6.1-4.3,12.2-6.5,18.3
		c-5.2,11.7-9,24.1-19.1,33.3c-20.4,18.5-49.8,20.5-66.7,0.5C2006.9,806.2,1963.9,806.3,1918.8,812.1z"/>
	<path class="st0" d="M818.5,1313.4c-38.9,0.8-70.1-37.9-60-75.1c2.4-8.9,5.6-17.9,10.2-25.7c61.7-104.4,102.4-217.9,146.3-330.1
		c6.4-16.4,13.7-32.4,21.3-48.3c5.6-11.7,14.3-20.9,28.6-16c15.6,5.4,12.8,18.4,9.7,30.4c-19.6,76.2-38.9,152.6-59,228.6
		c-15.4,58.3-25.8,117.5-34.7,177.1C875.3,1292.1,852.1,1312.7,818.5,1313.4z"/>
	<path class="st0" d="M1565.1,988.5c0-50.7,38.8-91.8,86-91.1c49.8,0.7,82.4,33.3,82.9,82.8c0.4,44.8-46.5,89.1-94,88.8
		C1597.8,1068.7,1565.1,1033.6,1565.1,988.5z"/>
	<path class="st0" d="M780.8,874.3c45.7-0.5,71.4,35.9,55.1,78.3c-5.7,14.7-13.4,28.4-23.7,40.6c-19.3,22.9-45,31.3-66.3,21.7
		c-25.6-11.5-42.3-43-37.4-70.6C716.5,899,741.6,874.7,780.8,874.3z"/>
	<path class="st1" d="M914.7,724.4c0.1-28.7,20.2-47.6,50.1-47.1c26.9,0.5,51.1,23.9,50.6,49.1c-0.5,25.9-26.5,48-55.6,47.3
		C932.7,773.1,914.7,753.4,914.7,724.4z"/>
	<path class="st2" d="M1644,1130.4c0.1,14.8-3.1,29.7-20,31.1c-14.8,1.2-22.9-11.5-23.7-25.2c-1-17.3,9.4-27.8,26.5-28.5
		C1641.7,1107.1,1644.1,1118.4,1644,1130.4z"/>
	<path class="st3" d="M1918.8,812.1c39.1-14.3,95.1-1.7,119.1,26.7c20.2,23.9,51.8,23.4,71.5-1.5c6.3-7.9,11.2-16.9,16.7-25.4
		c-0.2,24.4-13.9,40.2-35.3,47.7c-22.3,7.8-43,4.6-59.5-16C2001.7,806.5,1958.7,813.9,1918.8,812.1z"/>
</g>
</svg>
