<svg id="Layer_1" data-name="Layer 1" xmlns="http://www.w3.org/2000/svg" viewBox="0 0 1989.36 351.61"><defs><style>.cls-1{fill:#d7df24;}.cls-2{fill:#d7df25;}</style></defs><path class="cls-1" d="M1390.63,160.55c6.13-16,14.59-27.27,29.16-33.94,7.82-3.58,11.57-12.55,14.68-20.52,7.35-18.92,15.78-37.1,29-52.84,5.81-6.9,9-15.31,11.92-24,5.19-15.64,13.52-19.67,28.74-13.9,7.29,2.77,11.26-.92,15.21-5.22,4.12-4.49,8.91-6.73,14.44-4.23s4.63,8.2,4.66,13.11c.1,17.35-8,32.09-15.68,46.81-5.5,10.55-7.84,21.3-9.3,33.19-2.56,20.76-5.45,42.48-13.93,61.23-8.8,19.48-10.68,38.93-12.91,59.19-2.61,23.83-10.89,46.26-21.88,67.53-3.91,7.59-11.82,10.54-19.74,8.67-8.59-2-14.67-.32-20.48,6.05-4.57,5-10.63,10.19-17.66,5.89-7.35-4.51-12-12.57-8-20.94,15-31.25,12-68.25,32.19-97.83A20.08,20.08,0,0,0,1433.2,170c-11.49,29.71-41.52,49.51-43.68,84.23-.35,5.51-2,12.16-6.81,14.08-13.83,5.54-14.87,17.59-18,29.23-1.79,6.68-4,15.59-13.49,13.81s-8.91-11-7.6-17.73c3.4-17.55,3.67-34.25-2.88-51.54-4.27-11.26-.92-24,.06-36,.75-9.18,1.3-18.46-6.32-29.58-6.72,26.4-18,48.43-21.07,72.93-1.72,13.94-2.7,27.7-13.37,38.63-5,5.1-4.12,12.67-5.5,19.17-1.6,7.6-3.7,14.9-8.52,21-7.55,9.6-14.71,9.95-21.54-.17-6.22-9.22-8.52-6.66-11.61,1.68-2.11,5.67-5.76,10.6-13.05,9.26-6.78-1.25-9.41-6.72-10.71-12.57-2.33-10.46,1.71-19.84,7.6-27.83a57,57,0,0,0,10.91-31.36,100.48,100.48,0,0,1,11.12-41.32c13.89-26.89,16.74-56.68,23.58-85.43.9-3.83-.49-7-1-10.53-1.38-8.84-.33-17.63,6.41-23.85,10.42-9.61,14.07-21.52,15.1-34.93a58.1,58.1,0,0,1,2.53-14.6c3.3-9.48,9.37-16.21,20.39-11.68,7.65,3.13,13.36,2,19.76-2.74a31.48,31.48,0,0,1,13.68-5.32c8.45-1.23,14.11,2.22,14,11.74a31.27,31.27,0,0,1-.47,6.72c-4.44,18.77-1.52,36.24,7.77,53.2,5.28,9.62,4.8,20.85,5.68,31.61C1386.63,146.18,1384.83,152.73,1390.63,160.55Z"/><path class="cls-1" d="M781,136.42c3.53,13.59-2.3,24.75-14.34,33.56a18.73,18.73,0,0,0-7.43,11q-7.26,31.47-14.46,62.95c-2,8.57-1.1,17.58,7.68,20.63,10.2,3.55,16.34-5,19-13.07,5.2-15.82,15-29.55,19-46,3.56-14.89,17.81-18.56,28.92-7.8,5.17,5,7.68,4.18,11.83-.08,6.32-6.48,14.75-8.59,22.33-4.51,7,3.76,7.26,12.33,6,19.48-3.47,19.23-10.69,37.12-22.92,52.53-3.46,4.36-5.9,8.35-7.21,13.87-3.08,13-9.14,24.43-21.77,31a18.85,18.85,0,0,0-8.73,9.72c-8.21,18.41-17.86,23.75-38.57,18.94-14-3.25-26.36-5.46-40.05,2.79-10.68,6.43-19.91,1.77-22.86-10.22-3.82-15.56-10.53-28.45-20.73-41.24-9.31-11.66-12.41-28.11-7.38-43.65,2.77-8.55,3.83-16.51.22-24.81-4.26-9.75-2-19.07,4.08-26.65,9.86-12.28,15.41-26.27,19.93-41,1.05-3.43,1.9-7.17,3.91-10,8.71-12.38,15.06-24.81,11.79-41-1.28-6.37,1.33-13.8,7.1-19.54,6.77-6.73,9.45-16.25,13.37-24.81,5.59-12.18,13.25-22.75,25.11-29.27,16.5-9.08,33.23-17.82,50.3-25.8,15-7,30.18-1.52,45.17,1.27,3.54.67,6.93,2.09,10.46,2.84,22.22,4.7,28.67,11.45,28.2,33.78-.37,17.45-2.53,34.88-7.55,51.8-3.83,12.92-11.77,21.19-25.77,22-5.87.33-8.91,2.79-10.77,8.17-2.82,8.18-9.47,10.68-17.38,9.19-8.64-1.63-10.78-8.39-11.4-16.13-.93-11.61,5.64-22.91,1.18-34.69-1.73-4.58-2-10.54-7.88-11.42-5.36-.8-7.33,4.49-9.72,8.17C788.33,95.57,779.65,113.66,781,136.42Z"/><path class="cls-1" d="M144.88,79.21c-7.7,3.17-13.54,6.11-20.61,6.55-9.32.58-24.94,42.15-18.09,48.32,7.06,6.34,16.65,9.17,25.77,11.45,41.38,10.32,45.14,28.82,39.71,68.83-3,22.17-8.65,44-13.07,66-2.2,10.89-8.48,18.87-18.17,23.9a80.1,80.1,0,0,0-28.23,24.34c-10.55,14.31-19.46,16.11-36.49,10-6-2.16-11.65-3.33-18.3-1.9C37.81,340.89,17.6,321.46,8.47,305c-13.68-24.64-6.69-50.92-6.63-76.53,0-7.79,7.37-15.22,16-12,10.5,3.93,16.17-.27,22.13-7.1,5.08-5.79,10.47-13,19.18-8.72,7.92,3.86,9.76,12,10.05,20.68a60.07,60.07,0,0,1-5.78,28.73A46.2,46.2,0,0,0,61,254.9c-2.77,8-6.45,16.9,1.82,23.17C68,282,85.29,269.77,85.4,260.9c.19-16.22,8.72-29,14.55-43,1.23-2.93,3.21-6,1-8.8-2.54-3.2-5.74-.75-8.59.37-9.89,3.87-16.44.42-20.75-8.92-3.43-7.42-8.78-12.36-16.29-16.85-19-11.36-19.88-30.8-17.66-50.19.83-7.23,1.68-14-.23-21.25-2.26-8.55,1.11-16.68,6.72-22.42C55,78.71,59.37,64.65,64.64,50.87c7.42-19.4,21.87-30.85,42-33.9,10.16-1.53,19.31-3.8,27.46-10,10.27-7.81,19.12-5.64,29.22,1.89,22.65,16.89,36.81,39.68,48.78,64.31,2.7,5.56,1.68,11.24-.17,17-4.94,15.43-14.09,29-18.94,44.58-2.62,8.41-14.93,10.75-21.59,4.43-5.58-5.3-10.66-9.16-18.8-11-10-2.2-10.78-12.11-9.92-21.08.43-4.46,1.77-8.84,2.15-13.31S144.88,85,144.88,79.21Z"/><path class="cls-1" d="M419.29,69.86c-.24,1.32-.38,5.48-1.77,9.18-9.8,26-18.87,52.39-30,77.83-16.35,37.19-47.54,53.64-86.83,56.68-18.3,1.41-22.35,4.73-25.23,23.06-.48,3.09-.44,6.55-1.89,9.15-11.9,21.49-18.19,44.33-21.24,68.77-2,16.31-12.68,20.06-28.65,14.24-7.74-2.81-14.8,1.53-21.95,3.32-19.26,4.83-24.86-.3-21.67-20.28,3.1-19.45,16.21-35,20.94-53.81,4.26-17,9.07-33.8,14-50.6,2.05-7.07-1.19-13.34-2.31-19.83-2.06-11.85-.57-22.65,7.66-31.52C235,140.21,241.34,121,245.54,100.43c5-24.46,22.33-43.85,29.16-67.7.87-3.06,5-7.74,7.09-7.49,17.49,2.08,28.32-14.36,43.91-15.41a265.28,265.28,0,0,1,48.55,1.41C396.5,13.85,419.32,43.27,419.29,69.86Zm-65,13c-1.9-6.22-2.26-19-11.16-17.94-5.32.63-16.33,6.63-19.75,15.71-6.95,18.45-13.69,37-20.55,55.46-2,5.43-3,10.91,3.27,13.95s12.47,2.49,17.11-3.25c5.42-6.68,9.93-14,11.65-22.53,2.32-11.57,4.71-22.85,15.75-30C353.69,92.31,354.75,88.47,354.33,82.88Z"/><path class="cls-1" d="M1989.1,66.13c0,2.24.63,4.71-.09,6.7-12.76,35.35-21.91,72.24-43.66,103.81-18,26.15-45.53,33.9-75,36.86-17.8,1.79-23,5.44-24.83,23.36a44.63,44.63,0,0,1-7,20.16c-10,15.21-13,32.26-14.59,49.83-1.91,21.54-10.42,26.82-31.55,21.37-7.18-1.85-14.78,2.13-22.07,4.11-16.47,4.46-20.55,1.22-20.49-15.52,0-12.16,4.78-23,10.52-33.05,13.92-24.34,15.78-52.28,24.74-78.07,1.18-3.39-.54-7.9-1.31-11.81-3-15.18-2.71-29.65,9.1-41.53,14.1-14.18,18.32-32.52,22.37-51,5.44-24.82,22.56-44.72,29.7-68.92,1.19-4,5-8.75,9.82-8.23,12.64,1.34,21.67-4.75,31-11.79,4.49-3.38,11-3.9,17-2.72,9.4,1.85,18.85,1.37,28.36.94C1960.6,9.26,1989,36.54,1989.1,66.13Zm-64.76,18.12c.12-6.6-2.69-12.17-6.24-17.44-1.21-1.79-3.92-4.65-5.06-2.75-4.78,8-16.45,7.35-19.85,17-6.39,18.13-13.64,36-20,54.1-1.86,5.29-3.77,12.08,3.64,15.16,6.75,2.81,13.21,1.89,17.82-4.84,4.33-6.33,8.55-12.77,10.1-20.33,2.46-12,4.84-23.7,16.14-31.19C1924,91.86,1924.55,88,1924.34,84.25Z"/><path class="cls-1" d="M961.5,186.38c.86,15.35,2.43,30.5,7,45.27,2.82,9.23,8.13,14.13,18.43,14.57,17.06.71,33.69,3.19,50.58-4,13-5.5,33.68,7,38.55,20.51,6.22,17.31-1.7,39.63-18,44.27-13.09,3.73-17.68,10.53-17.12,23.06.18,3.95-1.53,7.94-2,11.95-.71,6.31-3.41,10-10.41,9.55-7.52-.44-10.29-5.35-10.6-11.62-.19-3.89,1.2-8,2.41-11.81,6.35-20.06,2.3-32.08-15.4-42.82-12.89-7.83-27.62-10.94-42.05-14.53-7.95-2-10.39,3.34-10.89,10-.69,9.14,1.84,17.69,4.33,26.42,3.2,11.23,2.68,22.58-6.3,31.48-7,6.93-15.92,5.72-24.28,3.21-12-3.62-16.84-12.53-13.58-25.45,3.19-12.62,7.57-24.95,11-37.53,4.24-15.63.86-21-15.19-25.15-7.41-1.92-15.22-2.77-21.32-8-2.74-2.37-5.78-5.05-4.72-9,1.13-4.29,5.31-4.38,8.89-4.55a105,105,0,0,1,25.6,2.07c12.67,2.53,21-1.46,23.23-15.38,3.53-21.73,7.6-43.36,11.68-65,1-5.26-1.4-7.16-5.91-8.63-8.14-2.66-16.21-5.6-24.12-8.87-3-1.26-8-2.43-6.58-7,1.35-4.43,6.17-2.48,9.48-2.6,5-.16,10.2-.57,14.85.76,12.09,3.45,16.55-1.32,18-13a375.86,375.86,0,0,1,7.62-39.69c1.61-6.84-.35-9.72-7-11.43-10.46-2.7-21-5.39-30.64-10.56-5.58-3-10.22-6.89-8.78-13.62,1.63-7.67,8.41-7.3,14.28-6.6,30.94,3.71,61.84,7.77,92.77,11.49,17.84,2.14,35.4,5.77,53.81,3.6,12.34-1.46,22.76,5.28,27.9,17.48,4.49,10.66,4.51,21.27-3.65,30.31-8.33,9.23-18.32,11.69-30.65,7.43-21.62-7.47-23.17-5.95-23,17.85.09,14.1,3,16.32,17.37,13.27,18.56-3.95,34,2.86,43.16,19.1,7.43,13.09,6.71,31.55-1.58,40.57-12.08,13.15-34.51,18.3-49.91,11.56-4.36-1.91-7.11-5.34-9.76-9-19.28-26.87-50.56-31.12-78.77-41-5.34-1.87-7.15,2.63-7.48,7C962.11,170.21,961.89,178.3,961.5,186.38Zm14.24-88.11c-1.8,31.76-1.06,32.64,30.89,36.57,3.58.44,7.35.25,10.74,1.29,6.5,2,9.25-.73,10.34-6.66.72-4,1.75-7.9,2.51-11.86,7.3-38.23,7.08-31.47-24.71-40.85C977.54,68.52,977.39,69,975.74,98.27Z"/><path class="cls-1" d="M541.58,7.39c14.84,46.45,29.36,90.79,43.06,135.39,4,13.05.27,16.57-14.18,17-32.21.92-64-3.09-95.71-8-12.68-2-15.27-9.49-13.47-20.21a33.41,33.41,0,0,1,3.57-10.14c19.89-36.85,40.92-73,67.77-105.41C534.59,13.6,537.08,11.66,541.58,7.39Z"/><path class="cls-1" d="M1663,23.14c12.22,41.78,24.5,83.13,36.3,124.61,3.61,12.72.56,16.55-12.75,16.9-28.16.74-55.84-3.79-83.5-8.29-7.61-1.25-10.34-6.37-10.53-13.5a34.56,34.56,0,0,1,4.21-16.87c16.73-32.39,33.68-64.68,55.6-94C1655,28.48,1657.42,24.54,1663,23.14Z"/><path class="cls-1" d="M397.48,329.23c-17.48-.08-25.68-7.38-30-26.71-3-13.35,3.87-28.66,18.29-33.86,13.29-4.81,20.38-14,26.53-25.29,6.9-12.63,13.84-25.26,21.08-37.7a216.45,216.45,0,0,1,14-21.43c2.75-3.65,6.16-9.74,11.72-6.34,4.22,2.58,1.79,8.41.6,12.6-6.18,21.65-13.7,42.9-24.21,62.8-6.09,11.53-7,22.55-4.23,35C436.94,313.44,423.51,329.34,397.48,329.23Z"/><path class="cls-1" d="M1535.8,323.2c-13.07,1.53-18.85-8.88-22.91-21.13-4.45-13.41.06-28.77,13.23-34.66,14.22-6.36,20.81-17.65,27.26-30.09,8.49-16.36,17.11-32.66,26.16-48.71,2.22-4,5.36-10.16,11.2-7.09,4.68,2.46,1.85,8.1.72,12.26-5.3,19.53-11.47,38.81-20.37,57a48.69,48.69,0,0,0-3.87,33.85C1572.41,307.53,1560.3,323,1535.8,323.2Z"/><path class="cls-1" d="M530.05,210.25c-.49,7.62-.66,15.27-1.53,22.84-2.32,20.37-2.6,38.74,16.44,54,12.47,10,9.24,23.73-3.47,36.4-10.25,10.22-25.87,12.13-37.09,4.53-11.52-7.81-19-27.61-10.47-36.63,18.29-19.39,14.75-43.27,18.18-65.87,1.08-7.1,2-14.27,3.79-21.21,1.17-4.56,2.31-11.22,8.57-10.37s5,7.5,5.55,12.25C530.16,207.54,530,208.9,530.05,210.25Z"/><path class="cls-2" d="M1652.16,222.88c-.26,3.42-.32,9.31-1.22,15.07-2.5,16-1.78,29.89,12,42.49,13.22,12.06,10.92,26.38-2.26,38.87-9.42,8.93-22.36,9.54-32,1.51-11.45-9.55-13.92-28.15-3.71-40,11.58-13.46,8.71-29.71,10.82-44.93,1.49-10.66,2-21.47,4.87-31.91.92-3.33,1.49-7.88,6.19-7.59,5.68.34,5.22,5.16,5.23,9.23C1652.17,210.56,1652.16,215.51,1652.16,222.88Z"/><path class="cls-2" d="M581.28,305.8c5.22-28.06,4.92-56.25,1.86-84.52a19.6,19.6,0,0,1,.2-6.71c.91-3.65.27-8.83,6-9,4.29-.16,4.6,3.89,5.24,6.74,6.55,28.93,15.72,57,26.35,84.71,3.82,10,1.65,19-7.83,24.63-9.15,5.44-18.22,3.31-26.46-2.91C582.34,315.44,580,311.38,581.28,305.8Z"/><path class="cls-2" d="M1731.66,298c.18,13.38-6.7,21-17.43,20.77-10.32-.25-19.23-8.3-17.62-17.84,4.62-27.34,2.12-54.74,2.19-82.12,0-4.1-2.19-10.57,4-11.22,5.92-.63,5.65,6,6.55,10.07,5,22.84,10.31,45.58,19.35,67.27C1730.58,289.47,1732.17,294.24,1731.66,298Z"/></svg>