<?xml version="1.0" encoding="utf-8"?>
<!-- Generator: Adobe Illustrator 26.2.1, SVG Export Plug-In . SVG Version: 6.00 Build 0)  -->
<svg version="1.1" id="Layer_1" xmlns="http://www.w3.org/2000/svg" xmlns:xlink="http://www.w3.org/1999/xlink" x="0px" y="0px"
	 viewBox="0 0 2000 434.7" style="enable-background:new 0 0 2000 434.7;" xml:space="preserve">
<style type="text/css">
	.st0{fill:#D7DF24;}
	.st1{fill:#D7DF25;}
</style>
<g>
	<path class="st0" d="M1322.8,99.6c-0.2,11.4-2.6,25-6.2,38.5c-1.7,6.3-4.8,12-10.5,15.1c-10.4,5.7-23.2,6.9-29.7,19.4
		c-2,3.9-9,3.2-13.5-0.1c-5.7-4.2-7.1-10.3-6.4-16.7c1-8.9,2.9-17.6,1.5-26.6c-0.8-5.1-1.9-10.7-6.9-12.1c-6-1.6-7.9,4.7-10.5,8.6
		c-11,16.8-18.4,34.7-15.5,55.5c1.4,10.2-3,18.5-11,24.5c-7,5.3-9.9,11.8-11.4,20.3c-2,11.4-5.7,22.5-8.6,33.7
		c-1.1,4.3-2.5,8.6-3.2,13c-1.3,9-2.6,20,8.2,22.7c9.8,2.4,14.6-7.1,17.5-15.3c4.7-13.5,12.7-25.5,16.4-39.5
		c3.3-12.4,16.6-16.3,26-7.5c5.2,4.8,7.5,4.2,11.8,0.1c5.6-5.3,12.8-8,19.7-3.9c7,4.1,6.5,11.7,5.7,19.2c-1,9.1-5.3,17-8.3,25.3
		c-6.4,17.5-21,30.8-25.5,49.5c-1.4,5.9-7.4,9.9-13.1,13c-3.6,1.9-6.3,4.3-8.3,8.3c-9.3,18.9-16.8,22.9-38.5,18
		c-11.7-2.6-21.7-4.1-33.1,2.7c-11,6.5-19.9,1.4-22.9-11.6c-3-13-8.8-23.4-17.2-33.9c-9.3-11.6-12.2-27-7.5-42
		c2.4-7.7,3.1-14.7,0.1-22c-3.4-8.2-2.5-16.3,2.7-22.9c9.9-12.6,14.1-27.6,20.5-41.9c7-15.8,9.4-33,14.9-48.3
		c10.2-28.5,20.9-61,56.5-71.6c3.4-1,7.1-2.3,9.7-4.5c21.3-17.4,44.2-14,68.9-8.2C1317.9,63.7,1324.1,69.8,1322.8,99.6z"/>
	<path class="st0" d="M852.2,95.7c-1,12.9-2.6,28.3-7.2,43.4c-1.6,5.4-4.1,10-8.6,13.2c-10,7.1-23.1,7.6-31.4,19.8
		c-5.8,8.5-19.6-0.8-19.6-13.9c0-8.4,2.2-16.8,2.1-25.3c-0.1-6-0.6-13.9-7.6-15.9c-7.5-2.1-8.9,6.2-11.7,10.7
		c-10.5,17-17.8,34.8-14.3,55.8c1.5,8.7-3.4,16.4-10.8,21.8c-7.4,5.4-10.4,12.8-12.1,21.5c-2.6,13.1-6.6,25.9-9.7,39
		c-1.1,4.7-1.6,9.7-1.8,14.6c-0.2,6.6,1.2,13.4,8.4,15.1c6.9,1.6,12.4-3.2,14.7-9.3c5.4-14.7,14.4-27.7,18.4-43.1
		c4.1-15.7,15.1-19.5,27.7-9.3c5.2,4.2,7.4,2.4,11-0.9c5.7-5.3,12.9-7.4,19.8-3.8c6.9,3.6,6.1,11.3,5.9,18
		c-0.2,8.8-4.6,16.3-7.6,24.1c-6.8,18.3-21.1,32.8-26.6,51.9c-1.5,5.3-6.4,9.7-11.9,12.3c-4.2,2-7.4,4.7-9.6,9
		c-9.7,18.7-15.9,22.3-37.4,18.1c-12.1-2.4-22.6-4.4-34.5,2.7c-10.6,6.3-20.2,0.5-22.8-12.2c-2.5-12.2-7.5-22-15.7-31.7
		c-10.6-12.5-12.1-28.6-8.5-44.5c1.1-4.8,3.5-9.7,1.7-14.4c-6.1-15.6-1.8-28.5,8.5-40.9c8.2-9.9,7.9-23.9,14.3-34.4
		c8.7-14.1,8.5-30.5,13.7-44.6c10.1-27.4,19.6-58.3,52.6-70.1c8.5-3,16.3-7.2,23.9-12.2c9.9-6.5,21.2-9.7,33.4-6.9
		c8.8,2,17.5,3.9,26.3,5.9C848.3,64.7,852.6,70,852.2,95.7z"/>
	<path class="st0" d="M1677.2,169.1c7,2.8,12.1,0.3,16.9-1.6c9.1-3.6,17.1-2.3,23.2,4.9c7,8.2,17.2,15.5,10.8,29.1
		c-4,8.5-3.3,18.3-7.6,26.9c-6.8,13.7-13.1,16-26.5,9.5c-11.1-5.4-23.2,2.8-34.9-1.7c-2.2-0.8-4.8,6-4.7,10.1
		c0.2,10-2.3,19.5-5.5,28.8c-3,8.8,0.3,11.9,9.1,9.7c8.9-2.2,17.9-0.7,26.8-0.3c7,0.3,13.3,3.4,15.6,10.8c2.2,7.1,0.4,13.7-5.9,17.8
		c-6.7,4.4-7.2,10.1-7,17.2c0.5,24.1-11.3,32.8-33.3,24.7c-4.9-1.8-7.9-0.7-10.5,2.7c-10.2,13-21.5,18.5-36.8,7.5
		c-4.4-3.2-10.5-1.6-15.9-1.5c-24.1,0.2-38.9-15.7-30.9-37.9c8.3-22.8,9.6-47.2,22.5-69.3c9.3-15.9,17.9-36.1,9.2-57.2
		c-2.5-6.2,0.4-13.8,4.7-18.9c18.7-22.4,23.4-49.6,28.6-76.9c2.2-11.4,5.4-22.6,10.2-33.2c5.1-11.3,14.2-16.4,26-14.7
		c6.3,0.9,11.4-0.4,16.8-2.5c9-3.5,18-5.6,27.1,0.4c4.4,2.9,9.7,2,14.4,0.5c7.5-2.3,15.1-2.4,22.7-1.8c10.9,0.9,17,9.5,13.3,19.9
		c-2.5,7.1-2.6,13.6-1.6,20.8c1.4,10.4-0.7,20.4-6,29.7c-8.7,15.2-20.9,16.3-30.8,1.9c-5-7.2-10.4-5.6-16.4-3.6
		c-5.8,2-13.6,3.7-12,11.9C1691.7,146.8,1688.1,158.8,1677.2,169.1z"/>
	<path class="st0" d="M951.5,170.6c3-0.5,6.1-0.7,9-1.4c28.2-7.4,44.4,8.8,37.6,37.3c-2.1,8.7-3,17.7-7.9,25.4
		c-5.7,8.9-13.5,14.6-23.2,6.3c-7.8-6.6-14.4-0.2-21.5-0.3c-18.2-0.4-18.2-0.1-20.1,19c-0.1,0.9-0.2,1.8-0.3,2.7
		c-0.4,8.3-9.9,17-3.5,23.9c5.8,6.2,16-1.8,24.4,0.4c4.3,1.1,9,0.1,13.4,1.1c14,3.2,18.9,16.4,8.6,26c-7,6.5-8.3,12.7-8.2,21.6
		c0.3,20.5-14.3,29.9-33.6,22.3c-6.4-2.5-9.2,0.6-12.3,4.5c-9.5,11.5-19.9,16.3-33.7,6.2c-4.5-3.3-10.3-2.3-15.7-2.2
		c-31.8,0.5-39.7-18.6-31.8-41.4c7.7-22.4,10.1-46.2,22.5-68c8.5-14.9,17.1-34.3,8.6-54.5c-3.2-7.6,1.3-16.3,6.3-22.5
		c16.3-20,21.2-43.8,25.5-68.1c2.3-13.2,6-26.1,11.3-38.5c3.8-9.1,10.9-15.7,20.4-15c11.3,0.9,21-1.8,31.1-5.4
		c2.4-0.9,6.1-1.6,7.9-0.5c14.6,9,29.7,1.6,44.5,2.1c14.3,0.5,21.1,8.6,16.3,21.9c-3.4,9.5-0.8,18.6-1.3,27.8
		c-0.5,7.9-2.3,15-6.2,21.6c-8.7,14.4-20.9,15.4-30.1,1.5c-4.8-7.1-10.1-6.2-16.2-4.2c-6.3,2.1-13.8,3.9-12.5,13
		c1.8,13.4-0.1,25.7-11.9,35.2C949.6,169.2,950.5,169.9,951.5,170.6z"/>
	<path class="st0" d="M431,115.3c0.4-26.8-27-53.2-53.9-52.2c-5.8,0.2-12,1.3-17.5-0.1c-21.7-5.9-35.8,15.2-55.9,14.9
		c-1.7,0-4.4,3.6-5,5.9c-6,22.6-22,40.8-27.2,63.8c-2.8,12.5-3.6,26.1-12.9,36.2c-14,15.2-21.7,31.6-14.1,52.4
		c0.7,1.9,0.5,4.6-0.2,6.6c-8.3,23.5-10.2,48.9-22.9,71.2c-5,8.8-9.3,18.4-9.4,29.1c-0.2,14.3,4,17.7,17.9,14.6
		c7.3-1.6,14.4-5.7,22-3.6c17.5,4.9,26.1,0,27.9-18.3c1.8-18,5.2-35.3,15.4-50.7c2.7-4.1,3.5-9,4.1-14c1.4-13.4,7-20.9,22.9-22
		c21.4-1.5,43.2-6.2,59-22.7c28.8-30,36-70.1,49.7-107.1C431.4,118.1,431,116.6,431,115.3z M369.4,138.4
		c-11.8,8.4-13.4,21.4-17.1,33.8c-1.8,5.8-5.5,11.3-9.3,16.2c-4.2,5.4-10.6,4.9-16,2.1c-4.9-2.5-3.9-7.2-2.2-11.8
		c6.2-16.7,12.4-33.5,18.2-50.4c3-8.7,13.4-8.4,17.7-15.6c1.3-2.2,3.9,0.6,5.2,2.2c3.7,4.7,5.2,10.3,6.1,16.6
		C371.3,133.6,371.2,137.1,369.4,138.4z"/>
	<path class="st0" d="M1501.2,163.7c-10.2-27.2-30.8-37.3-58.6-28.6c-14.1,4.4-25.9,12.1-35.9,22.7c-12.4,13.1-22.8,27.8-31.4,43.4
		c-6.2,11.3-13.6,14.7-25.7,11.1c-5.7-1.7-14.4-5-16.9,1.7c-1.9,5.2,6.7,8.7,11.9,10.8c9.7,3.9,12.4,9.3,8.8,19.6
		c-4.6,13-7.6,26.6-10.7,40c-4.1,17.3-9.7,34.5-6.9,52.7c2.2,14,10.4,22.7,20.8,22.5c13.6-0.3,17.8-9.4,20-21
		c4.4-23.2,8.8-46.4,15.6-69.2c6.3-21.3,6-21.3,28.7-18.9c4,0.4,8.1,0.6,12.1,1.1c42.2,4.7,72.8-22.4,72.9-66.5
		C1505.8,179.1,1504,171.3,1501.2,163.7z M1442.4,226.6c-7.5,0.9-15.1,1.8-22.7,2.2c-9.6,0.6-14-3-8.5-12.6
		c8.8-15.6,19.1-30.2,33.6-41.2c15.4-11.6,24.4-7.6,27,11.4c0.3,2.2,0.3,4.4,0.4,5.4C1472.1,214.4,1463.6,224,1442.4,226.6z"/>
	<path class="st0" d="M1852.4,130c-0.1-12.3,0.2-29.2,2.4-46.1c0.7-5.7,2.2-11.3,8.5-12.1c7.6-0.9,8.4,6.3,8.9,11.1
		c2.6,22.1,3.8,44.5,6.9,66.6c6.7,47.9,18.5,94.6,35.9,139.8c4.6,12.1,11,23.4,18.5,34.1c10.2,14.4,6.4,33.3-7.5,40.8
		c-14.2,7.7-29.9,2.1-37.1-15.3c-10.9-26.1-15.3-54.1-21.6-81.4C1857.1,223.8,1851.7,179.6,1852.4,130z"/>
	<path class="st0" d="M546.4,205.1c-25.2-0.8-50.1-3.9-75-7.7c-11.4-1.8-13.8-8.7-12.5-18.2c0.6-4.3,2.4-8.7,4.5-12.5
		c18.7-33.6,37.9-66.9,62.4-96.8c6.3-7.7,8.9-7.7,12.1,2.7c11.5,37.1,24.2,73.8,35.8,110.8c6,19.2,3.7,21.7-16.7,21.8
		C553.6,205.1,550,205.1,546.4,205.1z"/>
	<path class="st0" d="M174.5,284.4c0.1,29.6-19.6,54.8-50.9,65c-34.4,11.2-66.6-0.4-98.3-11.2c-13.4-4.6-17.5-23.8-11.2-38.5
		c6.2-14.6,22.9-23.8,36.9-20.2c15.1,3.8,27,13.9,40.9,20.2c13,5.9,25.6,7.7,38.8,1c20.1-10.2,23.9-19.1,18.5-41
		c-1.5-6.1-9.2-15.1,0.2-18.7c8-3.1,12.5,6.8,16.5,13C171.9,263.2,175.1,273.3,174.5,284.4z"/>
	<path class="st0" d="M1781.7,150.7c-0.3-23.2,0.3-46.4,3.3-69.5c0.5-4,1.6-7.9,2.7-11.7c1.4-4.8,4.6-7.8,9.7-7.5
		c4.9,0.3,7,4.2,7.5,8.2c0.9,6.2,1.2,12.4,1.1,18.7c-1,62.7,3.6,124.9,18.7,186c4.3,17.5,12.5,33.4,19.5,49.8
		c8.6,20.2-3.2,35.8-24.4,33.6c-10.2-1.1-14.5-7.4-17.2-16.3c-8.2-27.5-12.2-55.8-15-84.2C1784.2,222.1,1781,186.5,1781.7,150.7z"/>
	<path class="st0" d="M106.7,55.7c22.8,1.7,47.3,6.4,69,20.6c3.1,2,8.3,4,6.3,8.9c-1.6,3.9-6.4,2.2-9.8,2c-20.5-1.7-41-5.6-61.6-0.4
		c-7.9,2-15.6,4.2-22.8,7.9c-24.1,12.3-28.6,30.3-12.9,51.9c14.2,19.5,13.8,29.2-1.8,41.2c-13.8,10.6-27.3,9.8-37.5-4.2
		C8.3,145.8,5.8,98.1,55.2,68.5C68.7,60.4,88,55.5,106.7,55.7z"/>
	<path class="st0" d="M1999.9,100.7c-4.5,28.9-11.7,57.1-21.2,84.5c-4.7,13.6-7.1,27.6-10.7,41.4c-3.5,13.2-15.9,22-29.2,21.3
		c-12.9-0.7-22.4-6.5-25.8-19.6c-2.7-10.3,0.2-20.3,7.1-27.5c26.4-27.8,39.3-62.6,53-97.1c1.2-2.9,2-6,3.4-8.7
		c3.1-5.9,3.4-16,13.2-14C1999.9,83.1,1998.1,93.3,1999.9,100.7z"/>
	<path class="st0" d="M399.7,363.9c-16.5,0.1-23.8-6-28.7-24c-3.4-12.4,3-27.2,17.1-32.6c12.6-4.8,19.3-13.7,25.3-24.4
		c9.9-17.5,19.9-34.9,30.3-52.1c2.8-4.6,6.2-12.1,12.9-8.9c6.1,3,1.6,9.8,0.2,14.4c-5.4,18.9-12,37.4-21.2,54.8
		c-6,11.3-7.6,21.9-4.7,34.5C436.3,349.8,424.2,363.8,399.7,363.9z"/>
	<path class="st0" d="M1467.5,283c11.3-0.7,22.5,0.4,33.4,3.2c13.2,3.3,22.4,11.3,25,25.1c2.4,12.9-3.5,22.9-13.1,30.3
		c-10.9,8.5-23,7-34.1,0.2c-14.4-9-28.4-18.8-42.4-28.4c-5.6-3.9-8.3-9.3-6.8-16.2c1.5-6.8,5.8-10.7,12.5-12.6
		C1450.5,282.2,1459,283.3,1467.5,283z"/>
	<path class="st0" d="M522.7,267c0,3.6,0.6,7.3-0.1,10.7c-3.5,18-1.3,32.9,14.7,46.1c12.3,10.1,9.8,22.7-2.4,35
		c-10,10.1-24.9,11.8-35.5,4c-11.1-8.1-17.1-26.4-8.5-35.6c15.3-16.4,12.9-36.3,15.9-55.3c1.4-8.8,2.5-17.7,4.4-26.4
		c0.8-3.7,2.2-8.5,7.5-8c6.1,0.5,4.5,5.8,4.7,9.4c0.3,6.7,0.1,13.4,0.1,20.1C523.1,267,522.9,267,522.7,267z"/>
	<path class="st1" d="M175.6,163.7c-19.9-1-33.9-11.5-37.1-27.3c-0.8-4.1-0.7-7.9,0.8-11.8c5.3-14.2,31.5-24.7,47.2-19
		c15.8,5.8,23.2,22.6,17.4,39.7C199.8,157.4,189,164.4,175.6,163.7z"/>
	<path class="st1" d="M574.3,291.9c0-11.6-0.1-23.2,0-34.8c0-3.4-0.7-7.8,4-8.8c4.8-0.9,5.9,3.1,6.6,6.6
		c5.8,26.1,13.5,51.6,23.8,76.4c3.3,7.9,3.9,17-3.6,23.6c-6.2,5.5-13.6,6.3-21.4,3.2c-9.1-3.6-13.8-9.7-11.6-19.7
		C575.9,323.1,575.1,307.5,574.3,291.9z"/>
	<path class="st0" d="M1479.6,88.2c0-1.9-0.5-7.8,0.1-13.6c1.3-13,9.6-20.4,22.2-20.3c13.7,0.1,22.3,7.5,23.5,20.7
		c1.2,13.3-2,25.5-9.8,36.8c-6.2,9-13.3,12.2-24.1,9.2c-10.9-3-12.1-10.5-11.4-19.7C1480.5,98.3,1480,95.2,1479.6,88.2z"/>
	<path class="st0" d="M1417.3,75.1c-1.2-14.8-0.6-28.9,16.6-35.2c13-4.7,24.8,1.9,26.3,15.8c1.9,18-5.5,33-17.1,46.2
		c-4.8,5.4-11.3,5.1-17.5,3.2c-5.9-1.8-7.8-7.1-8.2-12.6C1417,86.7,1417.3,80.9,1417.3,75.1z"/>
	<path class="st1" d="M112.4,235c-15.6-0.1-28.6-11.7-29-25.9c-0.3-11.8,16-25.3,30.3-25.1c13.5,0.3,24.9,10.9,24.7,23.1
		C138.1,224.3,128,235.1,112.4,235z"/>
</g>
</svg>
